<?xml version="1.0" encoding="utf-8"?>
<!-- Generator: Adobe Illustrator 24.0.0, SVG Export Plug-In . SVG Version: 6.00 Build 0)  -->
<svg version="1.1" id="Layer_1" xmlns="http://www.w3.org/2000/svg" xmlns:xlink="http://www.w3.org/1999/xlink" x="0px" y="0px"
	 viewBox="0 0 1428 214" style="enable-background:new 0 0 1428 214;" xml:space="preserve">
<style type="text/css">
	.st0{fill:#3498DB;}
</style>
<g>
	<g>
		<g>
			<path class="st0" d="M390.93,175.72v-99.4h-37.89V54.74h102.63v21.58h-37.89v99.4H390.93z"/>
			<path class="st0" d="M523.8,166.54c-4.19,3.29-9.29,5.86-15.29,7.73c-6.01,1.87-12.06,2.8-18.18,2.8
				c-9.63,0-17.93-1.81-24.89-5.44c-6.97-3.62-12.32-8.78-16.06-15.46c-3.74-6.68-5.61-14.61-5.61-23.79
				c0-8.84,1.81-16.65,5.44-23.45c3.62-6.8,8.58-12.09,14.87-15.89c6.29-3.79,13.62-5.69,22-5.69c8.04,0,15.01,1.78,20.9,5.35
				c5.89,3.57,10.42,8.61,13.59,15.12c3.17,6.52,4.76,14.25,4.76,23.19v3.74h-58.96l0.34-12.74h43.33l-6.63,5.27
				c0.11-7.25-1.27-12.71-4.16-16.4c-2.89-3.68-7.05-5.52-12.49-5.52c-5.89,0-10.45,2.12-13.68,6.37
				c-3.23,4.25-4.84,10.45-4.84,18.61c0,9.63,1.9,16.6,5.69,20.9c3.79,4.31,9.6,6.46,17.42,6.46c4.53,0,9.01-0.74,13.42-2.21
				c4.42-1.47,8.5-3.57,12.23-6.29L523.8,166.54z"/>
			<path class="st0" d="M569,177.08c-7.48,0-14.1-1.81-19.88-5.44c-5.78-3.62-10.25-8.78-13.42-15.46
				c-3.17-6.68-4.76-14.5-4.76-23.45c0-8.95,1.61-16.85,4.84-23.7c3.23-6.85,7.7-12.18,13.42-15.97c5.72-3.79,12.32-5.69,19.79-5.69
				c6.91,0,13.02,1.7,18.35,5.1c5.32,3.4,8.95,7.99,10.87,13.76l-2.04,1.36V89.57h25.32v86.15h-25.32v-17.67l2.04,0.34
				c-1.93,5.89-5.55,10.48-10.87,13.76C582.02,175.44,575.91,177.08,569,177.08z M576.47,157.54c6.23,0,11.07-2.15,14.53-6.46
				c3.45-4.3,5.18-10.54,5.18-18.69c0-8.16-1.73-14.41-5.18-18.78c-3.46-4.36-8.3-6.54-14.53-6.54c-6.23,0-11.13,2.27-14.7,6.8
				c-3.57,4.53-5.35,10.82-5.35,18.86c0,8.04,1.73,14.19,5.18,18.44C565.06,155.41,570.02,157.54,576.47,157.54z"/>
			<path class="st0" d="M676.72,177.08c-9.29,0-17.33-1.81-24.13-5.44c-6.8-3.62-11.98-8.75-15.55-15.38s-5.35-14.47-5.35-23.53
				c0-9.06,1.92-16.99,5.78-23.79c3.85-6.8,9.23-12.09,16.14-15.89c6.91-3.79,15.01-5.69,24.3-5.69c6.12,0,12.12,0.96,18.01,2.89
				c5.89,1.93,10.65,4.53,14.27,7.82l-6.8,17.84c-3.4-2.72-7.14-4.84-11.21-6.37c-4.08-1.53-8.04-2.29-11.89-2.29
				c-6.91,0-12.35,2.1-16.31,6.29c-3.97,4.19-5.95,10.42-5.95,18.69c0,8.38,1.95,14.67,5.86,18.86c3.91,4.19,9.37,6.29,16.4,6.29
				c3.85,0,7.82-0.74,11.89-2.21c4.08-1.47,7.82-3.62,11.21-6.46l6.8,17.84c-3.74,3.29-8.61,5.86-14.61,7.73
				C689.58,176.14,683.29,177.08,676.72,177.08z"/>
			<path class="st0" d="M716.14,175.72V50.66h25.66v56.41l-2.89-0.85c2.94-6.12,7.05-10.79,12.32-14.02
				c5.27-3.23,11.36-4.84,18.27-4.84c20.28,0,30.41,12.06,30.41,36.19v52.16h-25.66v-50.97c0-6.12-1.1-10.53-3.31-13.25
				s-5.69-4.08-10.45-4.08c-5.67,0-10.19,1.81-13.59,5.44c-3.4,3.63-5.1,8.5-5.1,14.61v48.26H716.14z"/>
			<path class="st0" d="M889.62,166.54c-4.19,3.29-9.29,5.86-15.29,7.73c-6.01,1.87-12.06,2.8-18.18,2.8
				c-9.63,0-17.93-1.81-24.89-5.44c-6.97-3.62-12.32-8.78-16.06-15.46c-3.74-6.68-5.61-14.61-5.61-23.79
				c0-8.84,1.81-16.65,5.44-23.45c3.62-6.8,8.58-12.09,14.87-15.89c6.29-3.79,13.62-5.69,22-5.69c8.04,0,15.01,1.78,20.9,5.35
				c5.89,3.57,10.42,8.61,13.59,15.12c3.17,6.52,4.76,14.25,4.76,23.19v3.74h-58.96l0.34-12.74h43.33l-6.63,5.27
				c0.11-7.25-1.28-12.71-4.16-16.4c-2.89-3.68-7.05-5.52-12.49-5.52c-5.89,0-10.45,2.12-13.68,6.37s-4.84,10.45-4.84,18.61
				c0,9.63,1.89,16.6,5.69,20.9c3.79,4.31,9.6,6.46,17.42,6.46c4.53,0,9.01-0.74,13.42-2.21c4.42-1.47,8.49-3.57,12.23-6.29
				L889.62,166.54z"/>
			<path class="st0" d="M901,175.72v-61.51c0-4.08-0.08-8.18-0.25-12.32c-0.17-4.13-0.54-8.24-1.1-12.32h24.13l2.72,22.77
				l-2.72-1.36c1.36-7.7,4.61-13.53,9.77-17.5c5.15-3.96,11.02-5.95,17.59-5.95c1.92,0,3.65,0.17,5.18,0.51s2.86,0.74,3.99,1.19
				l-0.17,23.45c-4.19-1.92-8.38-2.89-12.57-2.89c-4.65,0-8.47,0.85-11.47,2.55c-3,1.7-5.33,4.11-6.97,7.22
				c-1.64,3.12-2.46,6.83-2.46,11.13v45.03H901z"/>
			<path class="st0" d="M1007.03,177.08c-6.23,0-12.01-0.57-17.33-1.7c-5.33-1.13-10.22-2.86-14.7-5.18
				c-4.48-2.32-8.64-5.29-12.49-8.92l4.42-8.33c6,5.33,12.09,9.12,18.27,11.38c6.17,2.27,13.51,3.4,22,3.4
				c10.19,0,18.12-2.09,23.79-6.29c5.66-4.19,8.5-10.08,8.5-17.67c0-4.76-1.47-8.5-4.42-11.21c-2.95-2.72-6.8-4.87-11.55-6.46
				c-4.76-1.58-9.97-3.06-15.63-4.42c-5.33-1.13-10.54-2.46-15.63-3.99c-5.1-1.53-9.74-3.51-13.93-5.95
				c-4.19-2.43-7.51-5.58-9.94-9.43c-2.44-3.85-3.65-8.78-3.65-14.78c0-6.8,1.73-12.77,5.18-17.93c3.45-5.15,8.38-9.15,14.78-11.98
				c6.4-2.83,14.02-4.25,22.85-4.25c5.44,0,10.65,0.59,15.63,1.78c4.98,1.19,9.63,2.97,13.93,5.35c4.3,2.38,8.16,5.27,11.55,8.67
				l-4.42,8.33c-5.67-5.1-11.44-8.84-17.33-11.21c-5.89-2.38-12.35-3.57-19.37-3.57c-10.2,0-18.13,2.18-23.79,6.54
				c-5.67,4.36-8.5,10.45-8.5,18.27c0,4.87,1.3,8.81,3.91,11.81c2.6,3,6.14,5.35,10.62,7.05c4.47,1.7,9.37,3.23,14.7,4.59
				c5.44,1.25,10.84,2.58,16.23,3.99c5.38,1.42,10.31,3.23,14.78,5.44c4.47,2.21,8.04,5.16,10.71,8.84
				c2.66,3.68,3.99,8.52,3.99,14.53c0,6.69-1.76,12.52-5.27,17.5c-3.51,4.99-8.5,8.86-14.95,11.64
				C1023.51,175.69,1015.86,177.08,1007.03,177.08z"/>
			<path class="st0" d="M1065.99,175.72v-61.51c0-3.85-0.08-7.79-0.25-11.81c-0.17-4.02-0.54-7.96-1.1-11.81h9.86l1.53,17.84
				l-1.7,1.7c1.92-7.02,5.44-12.37,10.53-16.06c5.1-3.68,11.1-5.52,18.01-5.52c8.38,0,14.87,2.04,19.46,6.12
				c4.59,4.08,7.5,10.31,8.75,18.69l-4.08-1.53c1.47-7.14,4.98-12.8,10.53-16.99c5.55-4.19,12.29-6.29,20.22-6.29
				c9.29,0,16.31,2.72,21.07,8.16c4.76,5.44,7.14,13.71,7.14,24.81v54.2h-10.37V122.2c0-8.5-1.53-14.72-4.59-18.69
				c-3.06-3.96-7.93-5.95-14.61-5.95c-7.7,0-13.82,2.61-18.35,7.82c-4.53,5.21-6.8,12.29-6.8,21.24v49.1h-10.36V122.2
				c0-8.5-1.56-14.72-4.67-18.69c-3.12-3.96-8.02-5.95-14.7-5.95c-7.82,0-13.96,2.61-18.44,7.82c-4.48,5.21-6.71,12.29-6.71,21.24
				v49.1H1065.99z"/>
			<path class="st0" d="M1205.82,55.42h13.76v13.25h-13.76V55.42z M1207.35,175.72V90.59h10.37v85.13H1207.35z"/>
			<path class="st0" d="M1239.81,175.72V50.66h10.37v125.06H1239.81z"/>
			<path class="st0" d="M1340.56,165.18c-3.63,3.63-8.33,6.49-14.1,8.58s-11.72,3.14-17.84,3.14c-8.61,0-16.03-1.75-22.26-5.27
				c-6.23-3.51-11.04-8.55-14.44-15.12c-3.4-6.57-5.1-14.44-5.1-23.62c0-8.84,1.67-16.59,5.01-23.28
				c3.34-6.68,8.01-11.86,14.02-15.55c6-3.68,12.91-5.52,20.73-5.52c7.36,0,13.7,1.61,19.03,4.84c5.32,3.23,9.4,7.9,12.23,14.02
				c2.83,6.12,4.25,13.54,4.25,22.26v2.21H1276l-0.17-7.82h60.66l-3.91,6.63c0.34-10.87-1.73-19.2-6.2-24.98
				c-4.48-5.78-11.07-8.67-19.79-8.67c-8.95,0-16,3.14-21.15,9.43c-5.16,6.29-7.73,14.93-7.73,25.91c0,11.55,2.63,20.33,7.9,26.34
				c5.27,6,12.88,9,22.85,9c5.21,0,10.11-0.85,14.7-2.55c4.59-1.7,9.09-4.36,13.51-7.99L1340.56,165.18z"/>
			<path class="st0" d="M1385.76,176.91c-13.82,0-24.75-3.79-32.79-11.38l3.91-7.99c4.53,3.63,9.06,6.26,13.59,7.9
				c4.53,1.64,9.8,2.46,15.8,2.46c7.14,0,12.52-1.22,16.14-3.65c3.62-2.43,5.44-5.97,5.44-10.62c0-3.74-1.22-6.74-3.65-9.01
				c-2.44-2.26-6.43-4.08-11.98-5.44l-14.44-3.4c-6.8-1.47-12.15-4.25-16.06-8.33c-3.91-4.08-5.86-8.84-5.86-14.27
				c0-4.98,1.3-9.32,3.91-13c2.6-3.68,6.26-6.54,10.96-8.58c4.7-2.04,10.22-3.06,16.57-3.06c5.89,0,11.44,0.96,16.65,2.89
				c5.21,1.93,9.52,4.7,12.91,8.33l-3.91,7.99c-3.97-3.4-8.02-5.95-12.15-7.65c-4.14-1.7-8.64-2.55-13.51-2.55
				c-6.57,0-11.67,1.3-15.29,3.91c-3.63,2.61-5.44,6.18-5.44,10.7c0,3.97,1.13,7.11,3.4,9.43c2.26,2.32,5.89,4.11,10.87,5.35
				l14.44,3.57c7.82,1.7,13.59,4.45,17.33,8.24c3.74,3.8,5.61,8.58,5.61,14.36c0,7.14-2.92,12.89-8.75,17.25
				C1403.63,174.73,1395.73,176.91,1385.76,176.91z"/>
		</g>
		<g>
			<g>
				<g>
					<path class="st0" d="M296.5,30.51h-18.37v-6.27c0.1-2.48-1.51-4.71-3.89-5.4c-12.72-3.33-25.81-5-38.96-4.97
						c-21.61,0-51.06,4.86-72.84,27.02c-21.61-22.37-51.28-27.02-72.84-27.02c-13.15-0.03-26.24,1.64-38.96,4.97
						c-2.38,0.69-3.99,2.92-3.89,5.4v6.21H28.54c-2.98,0-5.4,2.42-5.4,5.4v172.58c0,2.98,2.42,5.4,5.4,5.4
						c0.93,0,1.84-0.24,2.65-0.7c0.54-0.27,54.57-29.83,130-10.81h1.3c0.43,0.05,0.87,0.05,1.3,0
						c75.65-19.18,129.68,10.32,130,10.81c1.67,0.97,3.73,0.97,5.4,0c1.66-0.96,2.69-2.73,2.7-4.65V35.92
						C301.9,32.93,299.48,30.51,296.5,30.51z M33.95,199.85V41.32h12.91v135.52c-0.03,2.98,2.36,5.43,5.34,5.46
						c0.29,0,0.58-0.02,0.87-0.06c11.18-1.71,22.46-2.61,33.77-2.7c15.66-0.27,31.26,2.08,46.14,6.97
						C99.38,182.44,65.29,187.04,33.95,199.85z M161.6,189.42c-0.52,0.02-3.76-2.76-4.85-3.61c-11.34-7.32-33.2-17.02-69.91-17.02
						c-9.83,0.02-19.64,0.65-29.39,1.89V28.51c10.52-2.34,21.26-3.54,32.04-3.57c20.01,0,47.54,4.57,66.86,25.85
						c0.41,0.17,4.77,4.51,6.74,6.12c1.43-1.8,4.8-5.49,4.8-5.49c19.34-21.61,47.23-26.48,67.43-26.48
						c10.78,0.03,21.52,1.23,32.04,3.57v142.16c-9.69-1.25-19.46-1.9-29.23-1.95c-36.79,0-58.77,9.85-70.18,17.2
						C167.93,185.95,162.06,189.4,161.6,189.42z M291.04,199.85c-31.4-12.85-65.58-17.45-99.26-13.35
						c14.95-4.9,30.63-7.26,46.36-6.97c11.38,0.06,22.74,0.95,33.99,2.65c2.95,0.45,5.71-1.58,6.15-4.53
						c0.04-0.29,0.06-0.58,0.06-0.87V41.32h12.91L291.04,199.85z"/>
				</g>
			</g>
			<path class="st0" d="M229.08,96.7c-11.42,7.93-22.11,15.88-33.3,22.14c-11.12,6.3-22.64,10.9-34.22,12.17
				c-2.89,0.33-5.79,0.43-8.68,0.3c-2.9-0.07-5.78-0.43-8.66-0.95c-2.89-0.5-5.74-1.3-8.6-2.21c-1.43-0.45-2.84-1-4.25-1.56
				c-1.42-0.54-2.83-1.16-4.23-1.81c-5.61-2.6-11.08-5.9-16.42-9.65c-2.69-1.86-5.3-3.88-7.94-5.96c-1.32-1.04-2.61-2.12-3.89-3.23
				c-1.33-1.08-2.58-2.23-3.87-3.37l-0.82,0.5c7.44,11.41,17.31,21.26,29.03,28.33c5.87,3.5,12.24,6.22,18.92,7.81
				c6.67,1.6,13.63,2.04,20.46,1.33c3.41-0.38,6.79-1.07,10.09-1.97c1.66-0.43,3.28-0.99,4.91-1.52c1.6-0.61,3.21-1.18,4.77-1.88
				c6.31-2.66,12.21-6.15,17.79-10.04c5.59-3.9,10.8-8.3,15.73-12.96c4.9-4.7,9.52-9.68,13.92-14.84L229.08,96.7z"/>
			<g>
				<path class="st0" d="M222.53,91.08c1.86-1.13,4.2-1.34,6.41-0.68c2.24,0.61,4.23,2.23,5.45,4.17c0.28,0.5,0.62,0.98,0.83,1.5
					c0.19,0.52,0.4,1.04,0.57,1.57c0.2,0.52,0.24,1.06,0.35,1.59c0.1,0.53,0.18,1.06,0.21,1.59c0.01,1.05-0.02,2.11-0.16,3.13
					c-0.23,1.03-0.45,2.03-0.86,3.01h-0.24l-0.19-2.9c-0.1-0.96-0.28-1.91-0.42-2.86c-0.47-1.86-1-3.74-2.1-5.32
					c-1.01-1.61-2.46-2.95-4.2-3.72c-1.73-0.78-3.71-1.06-5.6-0.83L222.53,91.08z"/>
			</g>
		</g>
	</g>
</g>
</svg>
